<svg width="2484" height="673" xmlns="http://www.w3.org/2000/svg" xmlns:xlink="http://www.w3.org/1999/xlink" xml:space="preserve" overflow="hidden"><defs><clipPath id="clip0"><path d="M1263.95 630.504 1231.43 824.729 1425.65 857.257 1458.18 663.031Z" fill-rule="nonzero" clip-rule="nonzero"/></clipPath><clipPath id="clip1"><path d="M1263.95 630.504 1231.43 824.729 1425.65 857.257 1458.18 663.031Z" fill-rule="nonzero" clip-rule="nonzero"/></clipPath><clipPath id="clip2"><path d="M1263.95 630.504 1231.43 824.729 1425.65 857.257 1458.18 663.031Z" fill-rule="nonzero" clip-rule="nonzero"/></clipPath><clipPath id="clip3"><path d="M1596.73 527.674 1517.96 1094.51 970.229 1018.39 1049 451.555Z" fill-rule="nonzero" clip-rule="nonzero"/></clipPath><clipPath id="clip4"><path d="M1596.73 527.674 1517.96 1094.51 970.229 1018.39 1049 451.555Z" fill-rule="nonzero" clip-rule="nonzero"/></clipPath><clipPath id="clip5"><path d="M1596.73 527.674 1517.96 1094.51 970.229 1018.39 1049 451.555Z" fill-rule="nonzero" clip-rule="nonzero"/></clipPath></defs><g transform="translate(-967 -449)"><g><text fill="#4F95DA" fill-opacity="1" font-family="Helvetica,Helvetica_MSFontService,sans-serif" font-style="normal" font-variant="normal" font-weight="700" font-stretch="normal" font-size="303" text-anchor="start" direction="ltr" writing-mode="lr-tb" unicode-bidi="normal" text-decoration="none" transform="matrix(1 0 0 1 1531.02 856)">nto</text><text fill="#A6CAEE" fill-opacity="1" font-family="Helvetica,Helvetica_MSFontService,sans-serif" font-style="normal" font-variant="normal" font-weight="700" font-stretch="normal" font-size="303" text-anchor="start" direction="ltr" writing-mode="lr-tb" unicode-bidi="normal" text-decoration="none" transform="matrix(1 0 0 1 2001.96 856)">Curate</text><g clip-path="url(#clip0)"><g clip-path="url(#clip1)"><g clip-path="url(#clip2)"><path d="M174.365 76.7208C170.878 68.3102 161.237 64.4126 152.826 67.8999 145.852 70.7718 141.749 78.1567 142.774 85.3365L116.312 96.4138C113.44 91.4905 108.312 87.7981 102.568 86.7724L102.568 58.2586C109.542 56.4123 114.876 50.0531 114.876 42.4631 114.876 33.4371 107.491 26.0522 98.4652 26.0522 89.4392 26.0522 82.0543 33.4371 82.0543 42.4631 82.0543 50.0531 87.3878 56.4123 94.3624 58.2586L94.3624 86.5673C88.4135 87.593 83.4902 91.2854 80.6183 96.2087L54.1558 85.1313C55.1815 77.9516 51.2839 70.5667 44.1042 67.6948 35.6936 64.2075 26.0522 68.1051 22.5649 76.5156 19.0776 84.9262 22.9752 94.5676 31.3858 98.0549 38.3604 100.927 46.3607 98.6703 50.6685 92.7214L77.7465 103.799C77.5413 104.619 77.5413 105.645 77.5413 106.465 77.5413 110.978 78.9773 115.286 81.644 118.774L60.3099 140.313C53.9507 136.62 45.7453 137.441 40.4117 142.774 34.0525 149.134 34.0525 159.596 40.4117 165.955 46.771 172.314 57.2329 172.314 63.5921 165.955 68.9256 160.621 69.7462 152.416 66.0537 146.057L87.7981 124.312C90.8751 126.158 94.3624 127.184 98.0549 127.184 98.26 127.184 98.26 127.184 98.4652 127.184 98.6703 127.184 98.6703 127.184 98.8754 127.184 102.568 127.184 106.055 126.158 109.132 124.312L130.877 146.057C127.184 152.416 128.005 160.621 133.338 166.16 139.697 172.519 150.159 172.519 156.519 166.16 162.878 159.801 162.878 149.339 156.519 142.98 151.185 137.646 142.98 136.826 136.62 140.518L115.286 118.979C117.953 115.491 119.389 111.389 119.389 106.671 119.389 105.85 119.389 104.824 119.184 104.004L146.262 92.9265C150.57 98.6703 158.57 101.132 165.545 98.26 173.75 94.5676 177.853 85.1313 174.365 76.7208Z" stroke="#156082" stroke-width="2.05136" stroke-linecap="butt" stroke-linejoin="miter" stroke-miterlimit="4" stroke-opacity="1" fill="#4F95DA" fill-rule="nonzero" fill-opacity="1" transform="matrix(-0.165173 0.986265 0.986265 0.165173 1263.95 630.504)"/></g></g></g><g><g><g><path d="M58.3125 25.9167 58.3125 285.083 252.688 285.083 252.688 95.8463 182.758 25.9167ZM184.711 37.0317 241.573 93.8929C241.585 93.9055 241.585 93.9262 241.572 93.9386 241.566 93.9444 241.558 93.948 241.55 93.948L184.656 93.948 184.656 37.0544C184.657 37.0365 184.671 37.0223 184.689 37.0223 184.697 37.0226 184.706 37.0259 184.711 37.0317ZM64.7917 278.604 64.7917 32.3958 178.177 32.3958 178.177 100.427 246.208 100.427 246.208 278.604Z" stroke="#FFFFFF" stroke-width="7.06819" stroke-linecap="butt" stroke-linejoin="miter" stroke-miterlimit="4" stroke-opacity="1" fill="#FFFFFF" fill-rule="nonzero" fill-opacity="1" transform="matrix(1 0 0 1.10611 1195 548)"/></g></g></g><g clip-path="url(#clip3)"><g clip-path="url(#clip4)"><g clip-path="url(#clip5)"><path d="M492.507 435.48 420.503 363.476C410.71 353.683 397.462 350.227 384.789 352.531L359.444 327.186C381.909 298.384 395.157 261.518 395.157 222.348 395.157 127.303 317.393 49.5387 222.348 49.5387 127.303 49.5387 49.5387 127.303 49.5387 222.348 49.5387 317.393 127.303 395.157 222.348 395.157 261.518 395.157 297.808 381.909 327.186 359.444L352.531 384.789C350.227 397.462 353.683 410.71 363.476 420.503L435.48 492.507C443.544 500.571 453.913 504.603 464.281 504.603 474.65 504.603 485.018 500.571 493.083 492.507 508.06 476.378 508.06 451.033 492.507 435.48ZM221.772 360.02C145.736 360.02 83.5245 297.808 83.5245 221.772 83.5245 145.736 145.736 83.5245 221.772 83.5245 297.808 83.5245 360.02 145.736 360.02 221.772 360.02 297.808 297.808 360.02 221.772 360.02Z" stroke="#4F95DA" stroke-width="6.66255" stroke-linecap="butt" stroke-linejoin="miter" stroke-miterlimit="4" stroke-opacity="1" fill="#4F95DA" fill-rule="nonzero" fill-opacity="1" transform="matrix(-0.142452 1.02503 -0.990481 -0.137651 1596.73 527.674)"/></g></g></g></g></g></svg>